<svg xmlns="http://www.w3.org/2000/svg" viewBox="0 0 108.74 29.42"><defs><style>.cls-1{isolation:isolate;}.cls-2{fill:#4d4d4d;}.cls-3{opacity:0.7;}.cls-4{opacity:0.72;mix-blend-mode:multiply;}.cls-5{fill:#6d6d6d;}.cls-6{fill:#f15a24;}.cls-7{fill:#333;}.cls-8{opacity:0.9;}.cls-9{fill:#e3ecff;}.cls-10{fill:#f2f2f2;}.cls-11{fill:#efefef;}.cls-12{fill:#e6e6e6;}</style></defs><g class="cls-1"><g id="Layer_1" data-name="Layer 1"><polygon class="cls-2" points="0.04 5.21 0 5.24 0 5.19 0.04 5.21"/><g class="cls-3"><g class="cls-4"><polygon class="cls-5" points="8.13 9.53 8.08 9.56 8.08 16.07 8.06 16.08 0.72 20.25 0.72 10.25 0.7 5.24 8.13 9.53"/></g><polygon class="cls-6" points="7.43 9.53 7.38 9.56 7.38 16.07 7.36 16.08 0.02 20.25 0.02 10.25 0 5.24 7.43 9.53"/></g><polygon class="cls-7" points="0 5.24 0 5.24 0 5.24 0 5.24"/><g class="cls-8"><g class="cls-4"><path class="cls-9" d="M9.91.42a.88.88,0,0,0-.9,0L2,4.82l0,0h0L9.36,9.14,22.92,17,23,8.71a1.4,1.4,0,0,0-.7-1.22Z" transform="translate(-1.93 -0.31)"/></g><path class="cls-10" d="M9.91,1.12a.88.88,0,0,0-.9,0L2,5.52l0,0h0L9.36,9.84l13.56,7.83L23,9.41a1.4,1.4,0,0,0-.7-1.22Z" transform="translate(-1.93 -0.31)"/></g><g class="cls-3"><g class="cls-4"><path class="cls-9" d="M15,13.83,9.31,17.07l0,0L2,21.26v7.68a.79.79,0,0,0,1.19.68L22.81,18.29Z" transform="translate(-1.93 -0.31)"/></g><path class="cls-11" d="M15,13.13,9.31,16.37l0,0L2,20.56v7.68a.79.79,0,0,0,1.19.68L22.81,17.59Z" transform="translate(-1.93 -0.31)"/></g><g class="cls-8"><g class="cls-4"><path class="cls-9" d="M22.06,25.28l-5,4a.92.92,0,0,1-1.05.07L9.34,25.3l7.83-4.45L22,23.78A.92.92,0,0,1,22.06,25.28Z" transform="translate(-1.93 -0.31)"/></g><path class="cls-6" d="M22.06,25.28l-5,4a.92.92,0,0,1-1.05.07L9.34,25.3l7.83-4.45L22,23.78A.92.92,0,0,1,22.06,25.28Z" transform="translate(-1.93 -0.31)"/></g><g class="cls-8"><path class="cls-12" d="M32.69,18.78v4.73a6.62,6.62,0,0,1-1,.1,6.28,6.28,0,0,1-4.58-1.81,6.13,6.13,0,0,1-1.83-4.54,6.32,6.32,0,0,1,6.35-6.34,6.25,6.25,0,0,1,4.66,1.73A6.42,6.42,0,0,1,38,17.37v6H33.4V17.7a2.4,2.4,0,0,0-.47-1.54,1.57,1.57,0,0,0-1.27-.57,1.69,1.69,0,0,0-1.24.52,1.8,1.8,0,0,0-.05,2.5,1.64,1.64,0,0,0,1.21.49A2.08,2.08,0,0,0,32.69,18.78Z" transform="translate(-1.93 -0.31)"/><path class="cls-12" d="M42.28,11.17h4.57V21.45a8,8,0,0,1-1.52,5.14A6.51,6.51,0,0,1,40,29a7.51,7.51,0,0,1-2.34-.44V24.25a4.73,4.73,0,0,0,1.94.54q2.72,0,2.71-4Zm2.15-5.44A2.22,2.22,0,0,1,46,6.38a2.09,2.09,0,0,1,.68,1.55,2.06,2.06,0,0,1-.64,1.56,2.52,2.52,0,0,1-3.29,0,2.06,2.06,0,0,1-.64-1.56,2.06,2.06,0,0,1,.68-1.55A2.2,2.2,0,0,1,44.43,5.73Z" transform="translate(-1.93 -0.31)"/><path class="cls-12" d="M57,6.67H61.6V16.82a6.91,6.91,0,0,1-1.46,4.56A5.94,5.94,0,0,1,58,23a6.52,6.52,0,0,1-7.26-1.23,6,6,0,0,1-1.87-4.5,6.14,6.14,0,0,1,1.86-4.46,6,6,0,0,1,4.39-1.88c.27,0,.68,0,1.23.07v5a1.86,1.86,0,0,0-1.13-.44,1.6,1.6,0,0,0-1.21.52,1.71,1.71,0,0,0-.51,1.25A1.64,1.64,0,0,0,54,18.58a1.73,1.73,0,0,0,1.26.5c1.18,0,1.76-.81,1.76-2.43Z" transform="translate(-1.93 -0.31)"/><path class="cls-12" d="M68.58,6.67v5.09a4,4,0,0,1,2.32-.84,3.41,3.41,0,0,1,2.8,1.27,5.34,5.34,0,0,1,1,3.44v7.72H70.16V16.91A2.23,2.23,0,0,0,70,15.86a.69.69,0,0,0-.64-.27c-.51,0-.77.38-.77,1.14v6.62H64V6.67Z" transform="translate(-1.93 -0.31)"/><path class="cls-12" d="M83.17,10.91a6.07,6.07,0,0,1,4.45,1.86,6.12,6.12,0,0,1,1.85,4.47,6.11,6.11,0,0,1-1.88,4.5,6.46,6.46,0,0,1-9.06,0,6.07,6.07,0,0,1-1.88-4.49,6,6,0,0,1,1.88-4.5A6.39,6.39,0,0,1,83.17,10.91Zm-.12,4.51A1.66,1.66,0,0,0,81.8,16a1.9,1.9,0,0,0,0,2.6,1.73,1.73,0,0,0,2.49,0,1.9,1.9,0,0,0,0-2.6A1.66,1.66,0,0,0,83.05,15.42Z" transform="translate(-1.93 -0.31)"/><path class="cls-12" d="M95.94,6.67V23.35H91.37V6.67Z" transform="translate(-1.93 -0.31)"/><path class="cls-12" d="M105.39,18.78v4.73a6.62,6.62,0,0,1-1,.1,6.28,6.28,0,0,1-4.58-1.81A6.13,6.13,0,0,1,98,17.26a6.32,6.32,0,0,1,6.35-6.34A6.25,6.25,0,0,1,109,12.65a6.42,6.42,0,0,1,1.71,4.72v6H106.1V17.7a2.4,2.4,0,0,0-.47-1.54,1.57,1.57,0,0,0-1.27-.57,1.69,1.69,0,0,0-1.24.52,1.8,1.8,0,0,0-.05,2.5,1.64,1.64,0,0,0,1.21.49A2.08,2.08,0,0,0,105.39,18.78Z" transform="translate(-1.93 -0.31)"/></g></g></g></svg>